<svg width="210" height="168" viewBox="0 0 210 168" fill="none" xmlns="http://www.w3.org/2000/svg">
<path id="Vector" d="M178.5 0H31.5C23.1457 0 15.1335 3.31874 9.22614 9.22614C3.31874 15.1335 0 23.1457 0 31.5V136.5C0 144.854 3.31874 152.866 9.22614 158.774C15.1335 164.681 23.1457 168 31.5 168H178.5C186.854 168 194.866 164.681 200.774 158.774C206.681 152.866 210 144.854 210 136.5V31.5C210 23.1457 206.681 15.1335 200.774 9.22614C194.866 3.31874 186.854 0 178.5 0ZM31.5 147C28.7152 147 26.0445 145.894 24.0754 143.925C22.1062 141.955 21 139.285 21 136.5V111.09L55.65 76.545C57.6128 74.6211 60.2516 73.5435 63 73.5435C65.7484 73.5435 68.3872 74.6211 70.35 76.545L140.805 147H31.5ZM189 136.5C189 139.285 187.894 141.955 185.925 143.925C183.955 145.894 181.285 147 178.5 147H170.415L130.41 106.785L139.65 97.545C141.613 95.6211 144.252 94.5435 147 94.5435C149.748 94.5435 152.387 95.6211 154.35 97.545L189 132.09V136.5ZM189 102.48L169.26 82.845C163.276 77.0956 155.299 73.8846 147 73.8846C138.701 73.8846 130.724 77.0956 124.74 82.845L115.5 92.085L85.26 61.845C79.2756 56.0956 71.2987 52.8846 63 52.8846C54.7013 52.8846 46.7244 56.0956 40.74 61.845L21 81.48V31.5C21 28.7152 22.1062 26.0445 24.0754 24.0754C26.0445 22.1062 28.7152 21 31.5 21H178.5C181.285 21 183.955 22.1062 185.925 24.0754C187.894 26.0445 189 28.7152 189 31.5V102.48Z" fill="white"/>
</svg>
